<mxfile host="app.diagrams.net" modified="2023-10-16T17:52:09.818Z" agent="Mozilla/5.0 (X11; Linux x86_64; rv:109.0) Gecko/20100101 Firefox/118.0" etag="D98TfoVABbJUYViOK7wJ" version="22.0.4" type="github">
  <diagram name="Página-1" id="EeEMfRmvSeRJ9JPgg5A5">
    <mxGraphModel dx="1434" dy="740" grid="1" gridSize="10" guides="1" tooltips="1" connect="1" arrows="1" fold="1" page="1" pageScale="1" pageWidth="827" pageHeight="1169" math="0" shadow="0">
      <root>
        <mxCell id="0" />
        <mxCell id="1" parent="0" />
        <mxCell id="ircmWR_Xl4GF2j0K4Pb5-1" value="Início" style="rounded=1;whiteSpace=wrap;html=1;" vertex="1" parent="1">
          <mxGeometry x="10" y="270" width="120" height="60" as="geometry" />
        </mxCell>
        <mxCell id="ircmWR_Xl4GF2j0K4Pb5-17" style="edgeStyle=orthogonalEdgeStyle;rounded=0;orthogonalLoop=1;jettySize=auto;html=1;exitX=1;exitY=0.5;exitDx=0;exitDy=0;" edge="1" parent="1" source="ircmWR_Xl4GF2j0K4Pb5-3" target="ircmWR_Xl4GF2j0K4Pb5-4">
          <mxGeometry relative="1" as="geometry" />
        </mxCell>
        <mxCell id="ircmWR_Xl4GF2j0K4Pb5-3" value="A" style="ellipse;whiteSpace=wrap;html=1;aspect=fixed;" vertex="1" parent="1">
          <mxGeometry x="170" y="260" width="80" height="80" as="geometry" />
        </mxCell>
        <mxCell id="ircmWR_Xl4GF2j0K4Pb5-19" style="edgeStyle=orthogonalEdgeStyle;rounded=0;orthogonalLoop=1;jettySize=auto;html=1;exitX=1;exitY=0.5;exitDx=0;exitDy=0;entryX=0;entryY=0.5;entryDx=0;entryDy=0;" edge="1" parent="1" source="ircmWR_Xl4GF2j0K4Pb5-4" target="ircmWR_Xl4GF2j0K4Pb5-5">
          <mxGeometry relative="1" as="geometry" />
        </mxCell>
        <mxCell id="ircmWR_Xl4GF2j0K4Pb5-4" value="B" style="ellipse;whiteSpace=wrap;html=1;aspect=fixed;" vertex="1" parent="1">
          <mxGeometry x="280" y="260" width="80" height="80" as="geometry" />
        </mxCell>
        <mxCell id="ircmWR_Xl4GF2j0K4Pb5-21" style="edgeStyle=orthogonalEdgeStyle;rounded=0;orthogonalLoop=1;jettySize=auto;html=1;exitX=1;exitY=0.5;exitDx=0;exitDy=0;entryX=0;entryY=0.5;entryDx=0;entryDy=0;" edge="1" parent="1" source="ircmWR_Xl4GF2j0K4Pb5-5" target="ircmWR_Xl4GF2j0K4Pb5-6">
          <mxGeometry relative="1" as="geometry" />
        </mxCell>
        <mxCell id="ircmWR_Xl4GF2j0K4Pb5-5" value="C" style="ellipse;whiteSpace=wrap;html=1;aspect=fixed;" vertex="1" parent="1">
          <mxGeometry x="390" y="260" width="80" height="80" as="geometry" />
        </mxCell>
        <mxCell id="ircmWR_Xl4GF2j0K4Pb5-22" style="edgeStyle=orthogonalEdgeStyle;rounded=0;orthogonalLoop=1;jettySize=auto;html=1;exitX=1;exitY=0.5;exitDx=0;exitDy=0;entryX=0;entryY=0.5;entryDx=0;entryDy=0;" edge="1" parent="1" source="ircmWR_Xl4GF2j0K4Pb5-6" target="ircmWR_Xl4GF2j0K4Pb5-7">
          <mxGeometry relative="1" as="geometry" />
        </mxCell>
        <mxCell id="ircmWR_Xl4GF2j0K4Pb5-6" value="F" style="ellipse;whiteSpace=wrap;html=1;aspect=fixed;" vertex="1" parent="1">
          <mxGeometry x="500" y="260" width="80" height="80" as="geometry" />
        </mxCell>
        <mxCell id="ircmWR_Xl4GF2j0K4Pb5-26" value="" style="edgeStyle=orthogonalEdgeStyle;rounded=0;orthogonalLoop=1;jettySize=auto;html=1;" edge="1" parent="1" source="ircmWR_Xl4GF2j0K4Pb5-7" target="ircmWR_Xl4GF2j0K4Pb5-25">
          <mxGeometry relative="1" as="geometry" />
        </mxCell>
        <mxCell id="ircmWR_Xl4GF2j0K4Pb5-7" value="G" style="ellipse;whiteSpace=wrap;html=1;aspect=fixed;" vertex="1" parent="1">
          <mxGeometry x="610" y="260" width="80" height="80" as="geometry" />
        </mxCell>
        <mxCell id="ircmWR_Xl4GF2j0K4Pb5-28" value="" style="edgeStyle=orthogonalEdgeStyle;rounded=0;orthogonalLoop=1;jettySize=auto;html=1;" edge="1" parent="1" source="ircmWR_Xl4GF2j0K4Pb5-9" target="ircmWR_Xl4GF2j0K4Pb5-10">
          <mxGeometry relative="1" as="geometry" />
        </mxCell>
        <mxCell id="ircmWR_Xl4GF2j0K4Pb5-9" value="D" style="ellipse;whiteSpace=wrap;html=1;aspect=fixed;" vertex="1" parent="1">
          <mxGeometry x="827" y="260" width="80" height="80" as="geometry" />
        </mxCell>
        <mxCell id="ircmWR_Xl4GF2j0K4Pb5-10" value="E" style="ellipse;whiteSpace=wrap;html=1;aspect=fixed;" vertex="1" parent="1">
          <mxGeometry x="940" y="260" width="80" height="80" as="geometry" />
        </mxCell>
        <mxCell id="ircmWR_Xl4GF2j0K4Pb5-11" value="J" style="ellipse;whiteSpace=wrap;html=1;aspect=fixed;" vertex="1" parent="1">
          <mxGeometry x="1050" y="260" width="80" height="80" as="geometry" />
        </mxCell>
        <mxCell id="ircmWR_Xl4GF2j0K4Pb5-27" value="" style="edgeStyle=orthogonalEdgeStyle;rounded=0;orthogonalLoop=1;jettySize=auto;html=1;" edge="1" parent="1" source="ircmWR_Xl4GF2j0K4Pb5-25" target="ircmWR_Xl4GF2j0K4Pb5-9">
          <mxGeometry relative="1" as="geometry" />
        </mxCell>
        <mxCell id="ircmWR_Xl4GF2j0K4Pb5-25" value="H" style="ellipse;whiteSpace=wrap;html=1;aspect=fixed;" vertex="1" parent="1">
          <mxGeometry x="720" y="260" width="80" height="80" as="geometry" />
        </mxCell>
        <mxCell id="ircmWR_Xl4GF2j0K4Pb5-29" value="L" style="ellipse;whiteSpace=wrap;html=1;aspect=fixed;" vertex="1" parent="1">
          <mxGeometry x="1161" y="260" width="80" height="80" as="geometry" />
        </mxCell>
        <mxCell id="ircmWR_Xl4GF2j0K4Pb5-30" value="I" style="ellipse;whiteSpace=wrap;html=1;aspect=fixed;" vertex="1" parent="1">
          <mxGeometry x="1370" y="260" width="80" height="80" as="geometry" />
        </mxCell>
        <mxCell id="ircmWR_Xl4GF2j0K4Pb5-31" value="K" style="ellipse;whiteSpace=wrap;html=1;aspect=fixed;" vertex="1" parent="1">
          <mxGeometry x="1270" y="260" width="80" height="80" as="geometry" />
        </mxCell>
        <mxCell id="ircmWR_Xl4GF2j0K4Pb5-32" value="M" style="ellipse;whiteSpace=wrap;html=1;aspect=fixed;" vertex="1" parent="1">
          <mxGeometry x="1480" y="260" width="80" height="80" as="geometry" />
        </mxCell>
        <mxCell id="ircmWR_Xl4GF2j0K4Pb5-33" value="N" style="ellipse;whiteSpace=wrap;html=1;aspect=fixed;" vertex="1" parent="1">
          <mxGeometry x="1600" y="260" width="80" height="80" as="geometry" />
        </mxCell>
        <mxCell id="ircmWR_Xl4GF2j0K4Pb5-34" value="O" style="ellipse;whiteSpace=wrap;html=1;aspect=fixed;" vertex="1" parent="1">
          <mxGeometry x="1710" y="260" width="80" height="80" as="geometry" />
        </mxCell>
        <mxCell id="ircmWR_Xl4GF2j0K4Pb5-35" value="P" style="ellipse;whiteSpace=wrap;html=1;aspect=fixed;" vertex="1" parent="1">
          <mxGeometry x="1830" y="260" width="80" height="80" as="geometry" />
        </mxCell>
        <mxCell id="ircmWR_Xl4GF2j0K4Pb5-36" value="Q" style="ellipse;whiteSpace=wrap;html=1;aspect=fixed;" vertex="1" parent="1">
          <mxGeometry x="1930" y="260" width="80" height="80" as="geometry" />
        </mxCell>
        <mxCell id="ircmWR_Xl4GF2j0K4Pb5-37" value="Término" style="rounded=1;whiteSpace=wrap;html=1;" vertex="1" parent="1">
          <mxGeometry x="2060" y="270" width="120" height="60" as="geometry" />
        </mxCell>
        <mxCell id="ircmWR_Xl4GF2j0K4Pb5-40" value="D" style="ellipse;whiteSpace=wrap;html=1;aspect=fixed;" vertex="1" parent="1">
          <mxGeometry x="290" y="585" width="80" height="80" as="geometry" />
        </mxCell>
        <mxCell id="ircmWR_Xl4GF2j0K4Pb5-41" style="edgeStyle=orthogonalEdgeStyle;rounded=0;orthogonalLoop=1;jettySize=auto;html=1;exitX=1;exitY=0.5;exitDx=0;exitDy=0;" edge="1" parent="1" source="ircmWR_Xl4GF2j0K4Pb5-42" target="ircmWR_Xl4GF2j0K4Pb5-44">
          <mxGeometry relative="1" as="geometry" />
        </mxCell>
        <mxCell id="ircmWR_Xl4GF2j0K4Pb5-42" value="A" style="ellipse;whiteSpace=wrap;html=1;aspect=fixed;" vertex="1" parent="1">
          <mxGeometry x="180" y="450" width="80" height="80" as="geometry" />
        </mxCell>
        <mxCell id="ircmWR_Xl4GF2j0K4Pb5-43" style="edgeStyle=orthogonalEdgeStyle;rounded=0;orthogonalLoop=1;jettySize=auto;html=1;exitX=1;exitY=0.5;exitDx=0;exitDy=0;entryX=0;entryY=0.5;entryDx=0;entryDy=0;" edge="1" parent="1" source="ircmWR_Xl4GF2j0K4Pb5-44" target="ircmWR_Xl4GF2j0K4Pb5-46">
          <mxGeometry relative="1" as="geometry" />
        </mxCell>
        <mxCell id="ircmWR_Xl4GF2j0K4Pb5-44" value="B" style="ellipse;whiteSpace=wrap;html=1;aspect=fixed;" vertex="1" parent="1">
          <mxGeometry x="290" y="450" width="80" height="80" as="geometry" />
        </mxCell>
        <mxCell id="ircmWR_Xl4GF2j0K4Pb5-45" style="edgeStyle=orthogonalEdgeStyle;rounded=0;orthogonalLoop=1;jettySize=auto;html=1;exitX=1;exitY=0.5;exitDx=0;exitDy=0;entryX=0;entryY=0.5;entryDx=0;entryDy=0;" edge="1" parent="1" source="ircmWR_Xl4GF2j0K4Pb5-46" target="ircmWR_Xl4GF2j0K4Pb5-48">
          <mxGeometry relative="1" as="geometry" />
        </mxCell>
        <mxCell id="ircmWR_Xl4GF2j0K4Pb5-46" value="C" style="ellipse;whiteSpace=wrap;html=1;aspect=fixed;" vertex="1" parent="1">
          <mxGeometry x="400" y="450" width="80" height="80" as="geometry" />
        </mxCell>
        <mxCell id="ircmWR_Xl4GF2j0K4Pb5-47" style="edgeStyle=orthogonalEdgeStyle;rounded=0;orthogonalLoop=1;jettySize=auto;html=1;exitX=1;exitY=0.5;exitDx=0;exitDy=0;entryX=0;entryY=0.5;entryDx=0;entryDy=0;" edge="1" parent="1" source="ircmWR_Xl4GF2j0K4Pb5-48" target="ircmWR_Xl4GF2j0K4Pb5-50">
          <mxGeometry relative="1" as="geometry" />
        </mxCell>
        <mxCell id="ircmWR_Xl4GF2j0K4Pb5-48" value="F" style="ellipse;whiteSpace=wrap;html=1;aspect=fixed;" vertex="1" parent="1">
          <mxGeometry x="510" y="450" width="80" height="80" as="geometry" />
        </mxCell>
        <mxCell id="ircmWR_Xl4GF2j0K4Pb5-49" value="" style="edgeStyle=orthogonalEdgeStyle;rounded=0;orthogonalLoop=1;jettySize=auto;html=1;" edge="1" parent="1" source="ircmWR_Xl4GF2j0K4Pb5-50" target="ircmWR_Xl4GF2j0K4Pb5-52">
          <mxGeometry relative="1" as="geometry" />
        </mxCell>
        <mxCell id="ircmWR_Xl4GF2j0K4Pb5-50" value="G" style="ellipse;whiteSpace=wrap;html=1;aspect=fixed;" vertex="1" parent="1">
          <mxGeometry x="620" y="450" width="80" height="80" as="geometry" />
        </mxCell>
        <mxCell id="ircmWR_Xl4GF2j0K4Pb5-51" value="" style="edgeStyle=orthogonalEdgeStyle;rounded=0;orthogonalLoop=1;jettySize=auto;html=1;" edge="1" parent="1" source="ircmWR_Xl4GF2j0K4Pb5-52">
          <mxGeometry relative="1" as="geometry">
            <mxPoint x="837" y="490" as="targetPoint" />
          </mxGeometry>
        </mxCell>
        <mxCell id="ircmWR_Xl4GF2j0K4Pb5-52" value="H" style="ellipse;whiteSpace=wrap;html=1;aspect=fixed;" vertex="1" parent="1">
          <mxGeometry x="730" y="450" width="80" height="80" as="geometry" />
        </mxCell>
        <mxCell id="ircmWR_Xl4GF2j0K4Pb5-65" value="E" style="ellipse;whiteSpace=wrap;html=1;aspect=fixed;" vertex="1" parent="1">
          <mxGeometry x="400" y="585" width="80" height="80" as="geometry" />
        </mxCell>
        <mxCell id="ircmWR_Xl4GF2j0K4Pb5-66" value="J" style="ellipse;whiteSpace=wrap;html=1;aspect=fixed;" vertex="1" parent="1">
          <mxGeometry x="290" y="700" width="80" height="80" as="geometry" />
        </mxCell>
        <mxCell id="ircmWR_Xl4GF2j0K4Pb5-67" value="L" style="ellipse;whiteSpace=wrap;html=1;aspect=fixed;" vertex="1" parent="1">
          <mxGeometry x="400" y="700" width="80" height="80" as="geometry" />
        </mxCell>
        <mxCell id="ircmWR_Xl4GF2j0K4Pb5-68" value="K" style="ellipse;whiteSpace=wrap;html=1;aspect=fixed;" vertex="1" parent="1">
          <mxGeometry x="510" y="700" width="80" height="80" as="geometry" />
        </mxCell>
        <mxCell id="ircmWR_Xl4GF2j0K4Pb5-69" value="I" style="ellipse;whiteSpace=wrap;html=1;aspect=fixed;" vertex="1" parent="1">
          <mxGeometry x="620" y="700" width="80" height="80" as="geometry" />
        </mxCell>
        <mxCell id="ircmWR_Xl4GF2j0K4Pb5-70" value="M" style="ellipse;whiteSpace=wrap;html=1;aspect=fixed;" vertex="1" parent="1">
          <mxGeometry x="740" y="700" width="80" height="80" as="geometry" />
        </mxCell>
        <mxCell id="ircmWR_Xl4GF2j0K4Pb5-71" value="N" style="ellipse;whiteSpace=wrap;html=1;aspect=fixed;" vertex="1" parent="1">
          <mxGeometry x="860" y="700" width="80" height="80" as="geometry" />
        </mxCell>
        <mxCell id="ircmWR_Xl4GF2j0K4Pb5-72" value="O" style="ellipse;whiteSpace=wrap;html=1;aspect=fixed;" vertex="1" parent="1">
          <mxGeometry x="970" y="700" width="80" height="80" as="geometry" />
        </mxCell>
        <mxCell id="ircmWR_Xl4GF2j0K4Pb5-73" value="P" style="ellipse;whiteSpace=wrap;html=1;aspect=fixed;" vertex="1" parent="1">
          <mxGeometry x="1090" y="700" width="80" height="80" as="geometry" />
        </mxCell>
        <mxCell id="ircmWR_Xl4GF2j0K4Pb5-74" value="Q" style="ellipse;whiteSpace=wrap;html=1;aspect=fixed;" vertex="1" parent="1">
          <mxGeometry x="1190" y="700" width="80" height="80" as="geometry" />
        </mxCell>
        <mxCell id="ircmWR_Xl4GF2j0K4Pb5-75" value="Término" style="rounded=1;whiteSpace=wrap;html=1;" vertex="1" parent="1">
          <mxGeometry x="1320" y="710" width="120" height="60" as="geometry" />
        </mxCell>
      </root>
    </mxGraphModel>
  </diagram>
</mxfile>
